<svg viewBox="0 0 29.25 29.25" xmlns="http://www.w3.org/2000/svg" xmlns:xlink="http://www.w3.org/1999/xlink"><clipPath id="a"><path d="m0 0h29.25v29.25h-29.25z"/></clipPath><g clip-path="url(#a)"><path d="m24.07 11.65-10.48 10.49a.54.54 0 0 1 -.78 0l-1.55-1.56-.78-.79-3.6-3.79a.56.56 0 0 1 -.17-.4.53.53 0 0 1 .17-.38l1.58-1.43a.57.57 0 0 1 .39-.16.55.55 0 0 1 .38.16l3.58 3.65a.54.54 0 0 0 .78 0l8.16-8.14a.56.56 0 0 1 .78 0l1.55 1.57a.55.55 0 0 1 -.01.78zm-9.45-11.65a14.63 14.63 0 1 0 14.63 14.62 14.63 14.63 0 0 0 -14.63-14.62z" fill="#cafe48"/></g></svg>