<?xml version="1.0" encoding="utf-8"?>
<!-- Generator: Adobe Illustrator 25.4.1, SVG Export Plug-In . SVG Version: 6.00 Build 0)  -->
<svg version="1.1" id="Layer_1" xmlns="http://www.w3.org/2000/svg" xmlns:xlink="http://www.w3.org/1999/xlink" x="0px" y="0px"
	 viewBox="0 0 32 32" style="enable-background:new 0 0 32 32;" xml:space="preserve">
<style type="text/css">
	.st0{fill:#0d0529;}
</style>
<path class="st0" d="M29.6,0C30.9,0,32,1,32,2.3c0,0,0,0,0,0v27.4c0,1.3-1.1,2.3-2.4,2.3c0,0,0,0,0,0H2.4C1.1,32,0,31,0,29.7
	c0,0,0,0,0,0V2.3C0,1,1.1,0,2.3,0c0,0,0,0,0,0H29.6z M27.3,27.3v-8.4c0-4.1-0.9-7.3-5.7-7.3c-1.8-0.1-3.6,0.9-4.5,2.5H17V12h-4.5
	v15.3h4.7v-7.6c0-2,0.4-3.9,2.9-3.9s2.5,2.3,2.5,4.1v7.4H27.3z M9.5,12H4.7v15.3h4.8V12z M7.1,4.4c-1.5,0-2.8,1.2-2.8,2.8
	s1.2,2.8,2.8,2.8s2.8-1.2,2.8-2.8S8.6,4.4,7.1,4.4z"/>
</svg>
