<?xml version="1.0" encoding="utf-8"?>
<!-- Generator: Adobe Illustrator 25.4.1, SVG Export Plug-In . SVG Version: 6.00 Build 0)  -->
<svg version="1.1" id="Layer_1" xmlns="http://www.w3.org/2000/svg" xmlns:xlink="http://www.w3.org/1999/xlink" x="0px" y="0px"
	 viewBox="0 0 32 32" style="enable-background:new 0 0 32 32;" xml:space="preserve">
<style type="text/css">
	.st0{fill:#FFFFFF;}
</style>
<path class="st0" d="M32,16.1c0-8.8-7.2-16-16-16c-8.8,0-16,7.2-16,16C0,24,5.7,30.7,13.5,31.9V20.7H9.4v-4.6h4.1v-3.5
	c0-4,2.4-6.2,6-6.2c1.2,0,2.4,0.1,3.6,0.3v3.9h-2c-1.3-0.2-2.4,0.7-2.6,2c0,0.2,0,0.3,0,0.5v3h4.4l-0.7,4.6h-3.7v11.2
	C26.3,30.7,32,24,32,16.1z"/>
</svg>
