<svg id="Layer_1" data-name="Layer 1" xmlns="http://www.w3.org/2000/svg" xmlns:xlink="http://www.w3.org/1999/xlink" viewBox="0 0 245.37 57.39"><defs><style>.cls-1{fill:#fff;}.cls-2{fill-rule:evenodd;fill:url(#New_Gradient_Swatch_1);}</style><linearGradient id="New_Gradient_Swatch_1" x1="49.81" y1="43.02" x2="0.18" y2="14.37" gradientUnits="userSpaceOnUse"><stop offset="0" stop-color="#7727e8"/><stop offset="1" stop-color="#4ef2f2"/></linearGradient></defs><path class="cls-1" d="M62.68,25.32H66V10.15H62.68V25.32Zm8.73,0h3.3V15.68l7.35,9.64h2.83V10.15H81.6v9.34l-7.11-9.34H71.41V25.32Zm25.84.26A7.65,7.65,0,0,0,103.46,23l-2.12-2.27a5.47,5.47,0,0,1-4,1.77A4.49,4.49,0,0,1,93,17.74,4.5,4.5,0,0,1,97.35,13a5.28,5.28,0,0,1,3.91,1.69l2-2.3a8,8,0,0,0-13.78,5.38,7.66,7.66,0,0,0,7.78,7.84Zm10.48-.26h3.34V20.47h2.58l3.29,4.85h3.9l-3.7-5.42a4.7,4.7,0,0,0,3.25-4.7,4.83,4.83,0,0,0-1.3-3.51,6,6,0,0,0-4.42-1.54h-6.94V25.32Zm3.34-7.8V13.16h3.32c1.62,0,2.62.74,2.62,2.17s-.93,2.19-2.56,2.19ZM125,25.32h11.55v-3h-8.23V19.17h7.15v-3h-7.15V13.12h8.13v-3H125V25.32Zm16.13,0h3.27V15.48l4.22,6.42h.09L153,15.42v9.9h3.32V10.15h-3.6l-4,6.42-4-6.42h-3.59V25.32Zm20.41,0h11.55v-3h-8.23V19.17H172v-3h-7.15V13.12H173v-3H161.54V25.32Zm16.12,0H181V15.68l7.34,9.64h2.84V10.15h-3.29v9.34l-7.11-9.34h-3.08V25.32Zm22.26,0h3.33V13.23h4.62V10.15H195.3v3.08h4.62V25.32Zm18.44.24c4.07,0,6.65-2.25,6.65-6.85V10.15h-3.34v8.69c0,2.41-1.23,3.64-3.27,3.64s-3.27-1.28-3.27-3.75V10.15h-3.34v8.67c0,4.46,2.49,6.74,6.57,6.74ZM230,25.32h3.27V15.48l4.22,6.42h.09l4.27-6.48v9.9h3.31V10.15h-3.59l-4,6.42-4-6.42H230V25.32ZM62.53,47.23h5.92c4.76,0,8.06-3.31,8.06-7.58s-3.3-7.58-8.06-7.58H62.53V47.23Zm3.34-3V35.08h2.58A4.35,4.35,0,0,1,73,39.65a4.33,4.33,0,0,1-4.57,4.57Zm15.36,3h3.34V32.07H81.23V47.23Zm16,.26a9.86,9.86,0,0,0,6.48-2.4V38.5H97.16v2.88h3.36v2.17a5.31,5.31,0,0,1-3.14.91,4.55,4.55,0,0,1-4.6-4.81,4.57,4.57,0,0,1,4.36-4.77,5.6,5.6,0,0,1,4,1.54l2.1-2.53a8.27,8.27,0,0,0-6-2.08,7.79,7.79,0,0,0-8,7.84,7.6,7.6,0,0,0,8,7.84Zm11.44-.26H112V32.07h-3.33V47.23Zm12.26,0h3.34V35.14h4.62V32.07H116.36v3.07H121V47.23Zm8.87,0h3.4l1.39-3.4H141l1.39,3.4h3.49L139.41,32h-3.07l-6.5,15.27Zm6-6.34,2-4.92,2,4.92Zm14,6.34h10.9v-3H153.2V32.07h-3.34V47.23Z"/><path class="cls-2" d="M11.1,8.06.18,14.37h0V27L11.1,20.67V8.06Zm0,16L.18,30.41h0V43l10.92,6.3V24.1Zm3-5.14L25,12.65l6.94,4,7,4v16l-6.95,4-6.94,4V16.08L14.08,22.39V51L25,57.34l12.4-7.16L49.81,43V14.37L37.4,7.21,25,0,14.08,6.35V19Z"/></svg>